# xmcd
#
# Track frame offsets: 
#        150
#        23912
#        46118
#        71313
#        75036
#        94463
#        117139
#        134597
#        162271
#        177935
#        197000
#        223107
#
# Disc length: 3048 seconds
#
# Revision: 10
# Processed by: cddbd v1.5.2PL0 Copyright (c) Steve Scherf et al.
# Submitted via: ExactAudioCopy v1.3
#
DISCID=9b0be60c
DTITLE=Ozzy Osbourne - Blizzard of Ozz [Expanded]
DYEAR=1980
DGENRE=Metal
TTITLE0=I Don't Know
TTITLE1=Crazy Train
TTITLE2=Goodbye to Romance
TTITLE3=Dee
TTITLE4=Suicide Solution
TTITLE5=Mr. Crowley
TTITLE6=No Bone Movies
TTITLE7=Revelation (Mother Earth)
TTITLE8=Steal Away (The Night)
TTITLE9=You Looking at Me, Looking at You (B-Side)
TTITLE10=Goodbye to Romance (2010 Guitar and Vocal Mix)
TTITLE11=RR (Bonus Track)
EXTD=
EXTT0=
EXTT1=
EXTT2=
EXTT3=
EXTT4=
EXTT5=
EXTT6=
EXTT7=
EXTT8=
EXTT9=
EXTT10=
EXTT11=
PLAYORDER=
